<?xml version="1.0" encoding="UTF-8" standalone="no"?>
<svg
   xmlns:dc="http://purl.org/dc/elements/1.1/"
   xmlns:cc="http://creativecommons.org/ns#"
   xmlns:rdf="http://www.w3.org/1999/02/22-rdf-syntax-ns#"
   xmlns:svg="http://www.w3.org/2000/svg"
   xmlns="http://www.w3.org/2000/svg"
   xmlns:sodipodi="http://sodipodi.sourceforge.net/DTD/sodipodi-0.dtd"
   xmlns:inkscape="http://www.inkscape.org/namespaces/inkscape"
   viewBox="0 0 512 512"
   id="svg2"
   version="1.1"
   inkscape:version="0.48.4 r9939"
   width="100%"
   height="100%"
   sodipodi:docname="HTML5_logo_and_wordmark.svg">
  <metadata
     id="metadata30">
    <rdf:RDF>
      <cc:Work
         rdf:about="">
        <dc:format>image/svg+xml</dc:format>
        <dc:type
           rdf:resource="http://purl.org/dc/dcmitype/StillImage" />
      </cc:Work>
    </rdf:RDF>
  </metadata>
  <defs
     id="defs28" />
  <sodipodi:namedview
     pagecolor="#ffffff"
     bordercolor="#666666"
     borderopacity="1"
     objecttolerance="10"
     gridtolerance="10"
     guidetolerance="10"
     inkscape:pageopacity="0"
     inkscape:pageshadow="2"
     inkscape:window-width="1204"
     inkscape:window-height="708"
     id="namedview26"
     showgrid="false"
     inkscape:zoom="0.4609375"
     inkscape:cx="-130.16949"
     inkscape:cy="256"
     inkscape:window-x="0"
     inkscape:window-y="27"
     inkscape:window-maximized="0"
     inkscape:current-layer="svg2" />
  <title
     id="title4">HTML5 Logo</title>
  <polygon
     fill="#E44D26"
     points="107.644,470.877 74.633,100.62 437.367,100.62 404.321,470.819 255.778,512"
     id="polygon6" />
  <polygon
     fill="#F16529"
     points="256,480.523 376.03,447.246 404.27,130.894 256,130.894"
     id="polygon8" />
  <polygon
     fill="#EBEBEB"
     points="256,268.217 195.91,268.217 191.76,221.716 256,221.716 256,176.305 255.843,176.305 142.132,176.305 143.219,188.488 154.38,313.627 256,313.627"
     id="polygon10" />
  <polygon
     fill="#EBEBEB"
     points="256,386.153 255.801,386.206 205.227,372.55 201.994,336.333 177.419,336.333 156.409,336.333 162.771,407.634 255.791,433.457 256,433.399"
     id="polygon12" />
  <path
     d="M108.382,0h23.077v22.8h21.11V0h23.078v69.044H152.57v-23.12h-21.11v23.12h-23.077V0z"
     id="path14"
     style="fill:#ebebeb;fill-opacity:1" />
  <path
     d="M205.994,22.896h-20.316V0h63.72v22.896h-20.325v46.148h-23.078V22.896z"
     id="path16"
     style="fill:#ebebeb;fill-opacity:1" />
  <path
     d="M259.511,0h24.063l14.802,24.26L313.163,0h24.072v69.044h-22.982V34.822l-15.877,24.549h-0.397l-15.888-24.549v34.222h-22.58V0z"
     id="path18"
     style="fill:#ebebeb;fill-opacity:1" />
  <path
     d="M348.72,0h23.084v46.222h32.453v22.822H348.72V0z"
     id="path20"
     style="fill:#ebebeb;fill-opacity:1" />
  <polygon
     fill="#FFFFFF"
     points="255.843,268.217 255.843,313.627 311.761,313.627 306.49,372.521 255.843,386.191 255.843,433.435 348.937,407.634 349.62,399.962 360.291,280.411 361.399,268.217 349.162,268.217"
     id="polygon22" />
  <polygon
     fill="#FFFFFF"
     points="255.843,176.305 255.843,204.509 255.843,221.605 255.843,221.716 365.385,221.716 365.385,221.716 365.531,221.716 366.442,211.509 368.511,188.488 369.597,176.305"
     id="polygon24" />
</svg>
